<svg width="68" height="44" viewBox="0 0 68 44" fill="none" xmlns="http://www.w3.org/2000/svg">
<path d="M29.6596 28.9154C28.7922 27.5365 27.5029 23.6349 27.5029 18.539C27.5029 15.4786 26.1858 12.5437 23.8411 10.3797C21.4965 8.21571 18.3166 7 15.0008 7C11.685 7 8.50503 8.21571 6.16042 10.3797C3.81581 12.5437 2.49862 15.4786 2.49862 18.539C2.49862 23.6363 1.20777 27.5365 0.340435 28.9154C0.118945 29.2659 0.00152416 29.6642 1.47384e-05 30.07C-0.00149468 30.4758 0.112961 30.8748 0.331838 31.2268C0.550716 31.5787 0.866275 31.8712 1.24669 32.0746C1.62711 32.2781 2.05894 32.3854 2.49862 32.3857H8.87629C9.16473 33.6884 9.93182 34.8592 11.0478 35.7C12.1638 36.5408 13.5602 37 15.0008 37C16.4414 37 17.8378 36.5408 18.9538 35.7C20.0697 34.8592 20.8368 33.6884 21.1253 32.3857H27.5029C27.9425 32.3852 28.3741 32.2777 28.7543 32.0741C29.1345 31.8705 29.4499 31.578 29.6686 31.2261C29.8872 30.8742 30.0016 30.4753 30 30.0696C29.9984 29.664 29.881 29.2658 29.6596 28.9154ZM15.0008 34.6935C14.2254 34.6933 13.4691 34.4713 12.836 34.058C12.203 33.6447 11.7243 33.0605 11.4658 32.3857H18.5358C18.2773 33.0605 17.7986 33.6447 17.1655 34.058C16.5325 34.4713 15.7762 34.6933 15.0008 34.6935ZM2.49862 30.0779C3.70195 28.1682 4.99905 23.743 4.99905 18.539C4.99905 16.0907 6.0528 13.7427 7.92849 12.0115C9.80418 10.2804 12.3482 9.30779 15.0008 9.30779C17.6534 9.30779 20.1974 10.2804 22.0731 12.0115C23.9488 13.7427 25.0025 16.0907 25.0025 18.539C25.0025 23.7387 26.2965 28.1639 27.5029 30.0779H2.49862Z" fill="#113C5E"/>
<path d="M45.746 22.614H41.912V26.502H40.382V22.614H36.566V21.228H40.382V17.322H41.912V21.228H45.746V22.614ZM48.3671 18.762C48.4511 17.658 48.8771 16.794 49.6451 16.17C50.4131 15.546 51.4091 15.234 52.6331 15.234C53.4491 15.234 54.1511 15.384 54.7391 15.684C55.3391 15.972 55.7891 16.368 56.0891 16.872C56.4011 17.376 56.5571 17.946 56.5571 18.582C56.5571 19.326 56.3411 19.968 55.9091 20.508C55.4891 21.048 54.9371 21.396 54.2531 21.552V21.642C55.0331 21.834 55.6511 22.212 56.1071 22.776C56.5631 23.34 56.7911 24.078 56.7911 24.99C56.7911 25.674 56.6351 26.292 56.3231 26.844C56.0111 27.384 55.5431 27.81 54.9191 28.122C54.2951 28.434 53.5451 28.59 52.6691 28.59C51.3971 28.59 50.3531 28.26 49.5371 27.6C48.7211 26.928 48.2651 25.98 48.1691 24.756H49.7531C49.8371 25.476 50.1311 26.064 50.6351 26.52C51.1391 26.976 51.8111 27.204 52.6511 27.204C53.4911 27.204 54.1271 26.988 54.5591 26.556C55.0031 26.112 55.2251 25.542 55.2251 24.846C55.2251 23.946 54.9251 23.298 54.3251 22.902C53.7251 22.506 52.8191 22.308 51.6071 22.308H51.1931V20.94H51.6251C52.7291 20.928 53.5631 20.748 54.1271 20.4C54.6911 20.04 54.9731 19.488 54.9731 18.744C54.9731 18.108 54.7631 17.598 54.3431 17.214C53.9351 16.83 53.3471 16.638 52.5791 16.638C51.8351 16.638 51.2351 16.83 50.7791 17.214C50.3231 17.598 50.0531 18.114 49.9691 18.762H48.3671Z" fill="#E4001E"/>
</svg>
