<svg width="20" height="19" viewBox="0 0 20 19" fill="none" xmlns="http://www.w3.org/2000/svg">
<path d="M19.0359 8.04474L11.1192 0.44484C10.8223 0.160004 10.4197 0 10 0C9.58025 0 9.17768 0.160004 8.88078 0.44484L0.964124 8.04474C0.816384 8.18552 0.699271 8.35309 0.619595 8.5377C0.539918 8.72232 0.499269 8.9203 0.50001 9.12013V18.24C0.50001 18.4416 0.583418 18.6349 0.731884 18.7774C0.88035 18.9199 1.08171 19 1.29168 19H7.625C7.83497 19 8.03633 18.9199 8.18479 18.7774C8.33326 18.6349 8.41667 18.4416 8.41667 18.24V12.9201H11.5833V18.24C11.5833 18.4416 11.6667 18.6349 11.8152 18.7774C11.9637 18.9199 12.165 19 12.375 19H18.7083C18.9183 19 19.1197 18.9199 19.2681 18.7774C19.4166 18.6349 19.5 18.4416 19.5 18.24V9.12013C19.5007 8.9203 19.4601 8.72232 19.3804 8.5377C19.3007 8.35309 19.1836 8.18552 19.0359 8.04474ZM17.9167 17.48H13.1667V12.1601C13.1667 11.9585 13.0833 11.7652 12.9348 11.6227C12.7863 11.4802 12.585 11.4001 12.375 11.4001H7.625C7.41504 11.4001 7.21368 11.4802 7.06521 11.6227C6.91674 11.7652 6.83334 11.9585 6.83334 12.1601V17.48H2.08334V9.12013L10 1.52023L17.9167 9.12013V17.48Z" fill="white"/>
</svg>
