<svg width="19" height="19" viewBox="0 0 19 19" fill="none" xmlns="http://www.w3.org/2000/svg">
<path d="M9.5 0C7.62108 0 5.78435 0.557165 4.22209 1.60104C2.65982 2.64491 1.44218 4.12861 0.723149 5.86451C0.0041162 7.6004 -0.184015 9.51054 0.182544 11.3534C0.549104 13.1962 1.45389 14.8889 2.78249 16.2175C4.11109 17.5461 5.80383 18.4509 7.64665 18.8175C9.48946 19.184 11.3996 18.9959 13.1355 18.2769C14.8714 17.5578 16.3551 16.3402 17.399 14.7779C18.4428 13.2156 19 11.3789 19 9.5C18.9973 6.98126 17.9956 4.56644 16.2146 2.78542C14.4336 1.0044 12.0187 0.00265983 9.5 0ZM9.5 17.5385C7.91015 17.5385 6.35599 17.067 5.03407 16.1837C3.71216 15.3005 2.68185 14.045 2.07343 12.5762C1.46502 11.1073 1.30583 9.49108 1.616 7.93177C1.92616 6.37246 2.69175 4.94015 3.81595 3.81595C4.94015 2.69175 6.37247 1.92616 7.93178 1.61599C9.49109 1.30583 11.1074 1.46502 12.5762 2.07343C14.045 2.68184 15.3005 3.71215 16.1837 5.03407C17.067 6.35599 17.5385 7.91014 17.5385 9.5C17.536 11.6312 16.6884 13.6744 15.1814 15.1814C13.6744 16.6884 11.6312 17.536 9.5 17.5385ZM10.9615 13.8846C10.9615 14.0784 10.8846 14.2643 10.7475 14.4013C10.6105 14.5384 10.4246 14.6154 10.2308 14.6154C9.84315 14.6154 9.4714 14.4614 9.19731 14.1873C8.92322 13.9132 8.76923 13.5415 8.76923 13.1538V9.5C8.57542 9.5 8.38955 9.42301 8.2525 9.28596C8.11546 9.14892 8.03846 8.96304 8.03846 8.76923C8.03846 8.57542 8.11546 8.38954 8.2525 8.2525C8.38955 8.11545 8.57542 8.03846 8.76923 8.03846C9.15686 8.03846 9.52861 8.19244 9.8027 8.46653C10.0768 8.74063 10.2308 9.11237 10.2308 9.5V13.1538C10.4246 13.1538 10.6105 13.2308 10.7475 13.3679C10.8846 13.5049 10.9615 13.6908 10.9615 13.8846ZM8.03846 5.48077C8.03846 5.26397 8.10275 5.05204 8.2232 4.87178C8.34365 4.69152 8.51484 4.55102 8.71514 4.46805C8.91543 4.38509 9.13583 4.36338 9.34847 4.40568C9.5611 4.44797 9.75642 4.55237 9.90971 4.70567C10.063 4.85897 10.1674 5.05429 10.2097 5.26692C10.252 5.47955 10.2303 5.69995 10.1473 5.90025C10.0644 6.10054 9.92387 6.27174 9.74361 6.39219C9.56335 6.51263 9.35142 6.57692 9.13462 6.57692C8.8439 6.57692 8.56509 6.46143 8.35952 6.25587C8.15395 6.0503 8.03846 5.77149 8.03846 5.48077Z" fill="#FDFBF9"/>
</svg>
