<svg width="19" height="19" viewBox="0 0 19 19" fill="none" xmlns="http://www.w3.org/2000/svg">
<path d="M7.91641 18.2083C7.91641 18.4183 7.833 18.6197 7.68454 18.7681C7.53608 18.9166 7.33472 19 7.12477 19H0.791641C0.581685 19 0.380328 18.9166 0.231866 18.7681C0.0834049 18.6197 0 18.4183 0 18.2083V0.791667C0 0.581704 0.0834049 0.38034 0.231866 0.231874C0.380328 0.0834077 0.581685 0 0.791641 0H7.12477C7.33472 0 7.53608 0.0834077 7.68454 0.231874C7.833 0.38034 7.91641 0.581704 7.91641 0.791667C7.91641 1.00163 7.833 1.20299 7.68454 1.35146C7.53608 1.49993 7.33472 1.58333 7.12477 1.58333H1.58328V17.4167H7.12477C7.33472 17.4167 7.53608 17.5001 7.68454 17.6485C7.833 17.797 7.91641 17.9984 7.91641 18.2083ZM18.7678 8.9399L14.8096 4.98156C14.6611 4.83301 14.4596 4.74956 14.2495 4.74956C14.0395 4.74956 13.838 4.83301 13.6894 4.98156C13.5409 5.13011 13.4575 5.33159 13.4575 5.54167C13.4575 5.75175 13.5409 5.95322 13.6894 6.10177L16.2969 8.70833H7.12477C6.91481 8.70833 6.71345 8.79174 6.56499 8.94021C6.41653 9.08867 6.33313 9.29004 6.33313 9.5C6.33313 9.70996 6.41653 9.91133 6.56499 10.0598C6.71345 10.2083 6.91481 10.2917 7.12477 10.2917H16.2969L13.6894 12.8982C13.5409 13.0468 13.4575 13.2483 13.4575 13.4583C13.4575 13.6684 13.5409 13.8699 13.6894 14.0184C13.838 14.167 14.0395 14.2504 14.2495 14.2504C14.4596 14.2504 14.6611 14.167 14.8096 14.0184L18.7678 10.0601C18.8414 9.98658 18.8998 9.89927 18.9397 9.80316C18.9795 9.70705 19 9.60404 19 9.5C19 9.39596 18.9795 9.29295 18.9397 9.19684C18.8998 9.10073 18.8414 9.01342 18.7678 8.9399Z" fill="#FDFBF9"/>
</svg>
