<svg width="19" height="19" viewBox="0 0 19 19" fill="none" xmlns="http://www.w3.org/2000/svg">
<path d="M17.5385 0H1.46154C1.07391 0 0.702166 0.18198 0.428075 0.505906C0.153983 0.829833 0 1.26917 0 1.72727V17.2727C0 17.7308 0.153983 18.1702 0.428075 18.4941C0.702166 18.818 1.07391 19 1.46154 19H17.5385C17.9261 19 18.2978 18.818 18.5719 18.4941C18.846 18.1702 19 17.7308 19 17.2727V1.72727C19 1.26917 18.846 0.829833 18.5719 0.505906C18.2978 0.18198 17.9261 0 17.5385 0ZM17.5385 17.2727H1.46154V1.72727H17.5385V17.2727ZM14.6154 6.04545C14.6154 6.27451 14.5384 6.49417 14.4013 6.65614C14.2643 6.8181 14.0784 6.90909 13.8846 6.90909H5.11538C4.92157 6.90909 4.7357 6.8181 4.59865 6.65614C4.46161 6.49417 4.38462 6.27451 4.38462 6.04545C4.38462 5.8164 4.46161 5.59674 4.59865 5.43477C4.7357 5.27281 4.92157 5.18182 5.11538 5.18182H13.8846C14.0784 5.18182 14.2643 5.27281 14.4013 5.43477C14.5384 5.59674 14.6154 5.8164 14.6154 6.04545ZM14.6154 9.5C14.6154 9.72905 14.5384 9.94872 14.4013 10.1107C14.2643 10.2726 14.0784 10.3636 13.8846 10.3636H5.11538C4.92157 10.3636 4.7357 10.2726 4.59865 10.1107C4.46161 9.94872 4.38462 9.72905 4.38462 9.5C4.38462 9.27095 4.46161 9.05128 4.59865 8.88932C4.7357 8.72735 4.92157 8.63636 5.11538 8.63636H13.8846C14.0784 8.63636 14.2643 8.72735 14.4013 8.88932C14.5384 9.05128 14.6154 9.27095 14.6154 9.5ZM14.6154 12.9545C14.6154 13.1836 14.5384 13.4033 14.4013 13.5652C14.2643 13.7272 14.0784 13.8182 13.8846 13.8182H5.11538C4.92157 13.8182 4.7357 13.7272 4.59865 13.5652C4.46161 13.4033 4.38462 13.1836 4.38462 12.9545C4.38462 12.7255 4.46161 12.5058 4.59865 12.3439C4.7357 12.1819 4.92157 12.0909 5.11538 12.0909H13.8846C14.0784 12.0909 14.2643 12.1819 14.4013 12.3439C14.5384 12.5058 14.6154 12.7255 14.6154 12.9545Z" fill="white"/>
</svg>
