<svg width="19" height="19" viewBox="0 0 19 19" fill="none" xmlns="http://www.w3.org/2000/svg">
<path d="M14.25 0H4.75C3.49063 0.00179621 2.28324 0.669633 1.39273 1.85697C0.502225 3.04432 0.00134716 4.65418 0 6.33333V17.1905C0 17.6704 0.142984 18.1307 0.397498 18.47C0.652012 18.8094 0.997206 19 1.35714 19H17.6429C18.0028 19 18.348 18.8094 18.6025 18.47C18.857 18.1307 19 17.6704 19 17.1905V6.33333C18.9987 4.65418 18.4978 3.04432 17.6073 1.85697C16.7168 0.669633 15.5094 0.00179621 14.25 0ZM17.6429 6.33333V7.2381H14.9286V1.9C15.6944 2.10995 16.3825 2.66554 16.877 3.47311C17.3714 4.28068 17.6419 5.29085 17.6429 6.33333ZM10.1786 10.8571H8.82143V7.2381H10.1786V10.8571ZM8.14286 12.6667H10.8571C11.0371 12.6667 11.2097 12.5713 11.337 12.4017C11.4642 12.232 11.5357 12.0019 11.5357 11.7619V9.04762H13.5714V17.1905H5.42857V9.04762H7.46429V11.7619C7.46429 12.0019 7.53578 12.232 7.66303 12.4017C7.79029 12.5713 7.96289 12.6667 8.14286 12.6667ZM11.5357 7.2381V6.33333C11.5357 6.09338 11.4642 5.86325 11.337 5.69357C11.2097 5.52389 11.0371 5.42857 10.8571 5.42857H8.14286C7.96289 5.42857 7.79029 5.52389 7.66303 5.69357C7.53578 5.86325 7.46429 6.09338 7.46429 6.33333V7.2381H5.42857V1.80952H13.5714V7.2381H11.5357ZM4.07143 1.9V7.2381H1.35714V6.33333C1.3581 5.29085 1.62859 4.28068 2.12302 3.47311C2.61745 2.66554 3.30559 2.10995 4.07143 1.9ZM1.35714 9.04762H4.07143V17.1905H1.35714V9.04762ZM17.6429 17.1905H14.9286V9.04762H17.6429V17.1905Z" fill="#FDFBF9"/>
</svg>
