<svg width="19" height="19" viewBox="0 0 19 19" fill="none" xmlns="http://www.w3.org/2000/svg">
<path d="M9.49864 5.14151C8.63688 5.14151 7.79447 5.39705 7.07795 5.87582C6.36142 6.35459 5.80296 7.03508 5.47318 7.83124C5.1434 8.6274 5.05711 9.50347 5.22523 10.3487C5.39335 11.1939 5.80833 11.9702 6.41768 12.5796C7.02704 13.1889 7.8034 13.6039 8.6486 13.772C9.4938 13.9402 10.3699 13.8539 11.166 13.5241C11.9622 13.1943 12.6427 12.6359 13.1215 11.9193C13.6002 11.2028 13.8558 10.3604 13.8558 9.49864C13.8546 8.34342 13.3951 7.23587 12.5783 6.41901C11.7614 5.60215 10.6539 5.14271 9.49864 5.14151ZM9.49864 12.4034C8.92413 12.4034 8.36253 12.233 7.88484 11.9139C7.40716 11.5947 7.03485 11.141 6.815 10.6102C6.59514 10.0795 6.53762 9.49542 6.6497 8.93195C6.76178 8.36848 7.03843 7.8509 7.44467 7.44467C7.8509 7.03843 8.36848 6.76178 8.93195 6.6497C9.49542 6.53762 10.0795 6.59514 10.6102 6.815C11.141 7.03485 11.5947 7.40716 11.9139 7.88484C12.233 8.36253 12.4034 8.92413 12.4034 9.49864C12.4034 10.269 12.0974 11.0079 11.5526 11.5526C11.0079 12.0974 10.269 12.4034 9.49864 12.4034ZM17.4867 9.69471C17.4903 9.564 17.4903 9.43328 17.4867 9.30257L18.841 7.61055C18.9121 7.52171 18.9612 7.41743 18.9846 7.30612C19.0079 7.19481 19.0047 7.07957 18.9754 6.96969C18.7534 6.13512 18.4212 5.33381 17.9878 4.58688C17.931 4.48914 17.8522 4.40599 17.7577 4.34406C17.6631 4.28212 17.5554 4.24312 17.4431 4.23014L15.29 3.9905C15.2004 3.8961 15.1097 3.80532 15.0177 3.71818L14.7635 1.55959C14.7504 1.44722 14.7113 1.33946 14.6492 1.2449C14.5871 1.15034 14.5038 1.0716 14.4059 1.01495C13.6586 0.582271 12.8574 0.250483 12.023 0.028238C11.9131 -0.00099391 11.7978 -0.00398372 11.6865 0.0195094C11.5752 0.0430026 11.4709 0.0923215 11.3822 0.16349L9.69471 1.51057C9.564 1.51057 9.43328 1.51057 9.30257 1.51057L7.61055 0.158952C7.52171 0.0879382 7.41743 0.0387839 7.30612 0.015449C7.19481 -0.00788586 7.07957 -0.00474907 6.96969 0.0246069C6.13525 0.247027 5.334 0.579127 4.58688 1.01222C4.48914 1.06898 4.40599 1.14777 4.34406 1.24232C4.28212 1.33688 4.24312 1.44458 4.23014 1.55686L3.9905 3.71364C3.8961 3.80381 3.80532 3.89458 3.71818 3.98596L1.55959 4.23377C1.44722 4.24685 1.33946 4.28599 1.2449 4.34808C1.15034 4.41018 1.0716 4.49351 1.01495 4.59142C0.582271 5.33864 0.250483 6.13987 0.028238 6.97423C-0.00099391 7.08418 -0.00398372 7.19946 0.0195094 7.31077C0.0430026 7.42209 0.0923215 7.52633 0.16349 7.61509L1.51057 9.30257C1.51057 9.43328 1.51057 9.564 1.51057 9.69471L0.158952 11.3867C0.0879382 11.4756 0.0387839 11.5798 0.015449 11.6912C-0.00788586 11.8025 -0.00474907 11.9177 0.0246069 12.0276C0.246629 12.8622 0.578751 13.6635 1.01222 14.4104C1.06898 14.5081 1.14777 14.5913 1.24232 14.6532C1.33688 14.7152 1.44458 14.7542 1.55686 14.7671L3.71001 15.0068C3.80018 15.1012 3.89095 15.192 3.98233 15.2791L4.23377 17.4377C4.24685 17.5501 4.28599 17.6578 4.34808 17.7524C4.41018 17.8469 4.49351 17.9257 4.59142 17.9823C5.33864 18.415 6.13987 18.7468 6.97423 18.969C7.08418 18.9983 7.19946 19.0013 7.31077 18.9778C7.42209 18.9543 7.52633 18.905 7.61509 18.8338L9.30257 17.4867C9.43328 17.4903 9.564 17.4903 9.69471 17.4867L11.3867 18.841C11.4756 18.9121 11.5798 18.9612 11.6912 18.9846C11.8025 19.0079 11.9177 19.0047 12.0276 18.9754C12.8622 18.7534 13.6635 18.4212 14.4104 17.9878C14.5081 17.931 14.5913 17.8522 14.6532 17.7577C14.7152 17.6631 14.7542 17.5554 14.7671 17.4431L15.0068 15.29C15.1012 15.2004 15.192 15.1097 15.2791 15.0177L17.4377 14.7635C17.5501 14.7504 17.6578 14.7113 17.7524 14.6492C17.8469 14.5871 17.9257 14.5038 17.9823 14.4059C18.415 13.6586 18.7468 12.8574 18.969 12.023C18.9983 11.9131 19.0013 11.7978 18.9778 11.6865C18.9543 11.5752 18.905 11.4709 18.8338 11.3822L17.4867 9.69471ZM16.0253 9.10468C16.0407 9.36709 16.0407 9.63018 16.0253 9.8926C16.0144 10.0723 16.0707 10.2495 16.1832 10.39L17.4713 11.9994C17.3235 12.4692 17.1342 12.9248 16.9058 13.3611L14.8543 13.5934C14.6756 13.6133 14.5107 13.6986 14.3913 13.8331C14.2166 14.0296 14.0305 14.2157 13.834 14.3904C13.6996 14.5098 13.6142 14.6747 13.5943 14.8534L13.3665 16.903C12.9303 17.1316 12.4747 17.3209 12.0049 17.4686L10.3946 16.1805C10.2657 16.0775 10.1056 16.0215 9.9407 16.0216H9.89713C9.63472 16.0371 9.37163 16.0371 9.10922 16.0216C8.92956 16.0108 8.75229 16.0671 8.61178 16.1796L6.99783 17.4686C6.5281 17.3208 6.07245 17.1315 5.63623 16.903L5.40385 14.8543C5.38401 14.6756 5.29863 14.5107 5.1642 14.3913C4.96769 14.2166 4.78158 14.0305 4.60685 13.834C4.48752 13.6996 4.32257 13.6142 4.14391 13.5943L2.09424 13.3656C1.86567 12.9294 1.67641 12.4738 1.52872 12.004L2.8168 10.3937C2.92927 10.2532 2.98556 10.0759 2.97475 9.89623C2.95932 9.63381 2.95932 9.37072 2.97475 9.10831C2.98556 8.92865 2.92927 8.75138 2.8168 8.61087L1.52872 6.99783C1.67653 6.5281 1.86578 6.07245 2.09424 5.63623L4.143 5.40385C4.32166 5.38401 4.48661 5.29863 4.60595 5.1642C4.78068 4.96769 4.96678 4.78158 5.1633 4.60685C5.29825 4.48744 5.38399 4.32211 5.40385 4.143L5.63169 2.09424C6.06786 1.86567 6.52353 1.67641 6.99329 1.52872L8.60361 2.8168C8.74412 2.92927 8.92139 2.98556 9.10105 2.97475C9.36346 2.95932 9.62655 2.95932 9.88896 2.97475C10.0686 2.98556 10.2459 2.92927 10.3864 2.8168L11.9994 1.52872C12.4692 1.67653 12.9248 1.86578 13.3611 2.09424L13.5934 4.143C13.6133 4.32166 13.6986 4.48661 13.8331 4.60595C14.0296 4.78068 14.2157 4.96678 14.3904 5.1633C14.5098 5.29772 14.6747 5.38311 14.8534 5.40294L16.903 5.63078C17.1316 6.06695 17.3209 6.52262 17.4686 6.99238L16.1805 8.6027C16.0669 8.7444 16.0106 8.92349 16.0225 9.10468H16.0253Z" fill="#FDFBF9"/>
</svg>
