<svg width="19" height="19" viewBox="0 0 19 19" fill="none" xmlns="http://www.w3.org/2000/svg">
<path d="M17.6429 0H1.35714C0.997206 0 0.652012 0.200178 0.397498 0.556497C0.142984 0.912816 0 1.39609 0 1.9V17.1C0 17.6039 0.142984 18.0872 0.397498 18.4435C0.652012 18.7998 0.997206 19 1.35714 19H17.6429C18.0028 19 18.348 18.7998 18.6025 18.4435C18.857 18.0872 19 17.6039 19 17.1V1.9C19 1.39609 18.857 0.912816 18.6025 0.556497C18.348 0.200178 18.0028 0 17.6429 0ZM17.6429 17.1H1.35714V1.9H17.6429V17.1ZM2.71429 10.45C2.71429 10.198 2.78578 9.95641 2.91303 9.77825C3.04029 9.60009 3.21289 9.5 3.39286 9.5H4.75C4.92997 9.5 5.10257 9.60009 5.22982 9.77825C5.35708 9.95641 5.42857 10.198 5.42857 10.45C5.42857 10.702 5.35708 10.9436 5.22982 11.1218C5.10257 11.2999 4.92997 11.4 4.75 11.4H3.39286C3.21289 11.4 3.04029 11.2999 2.91303 11.1218C2.78578 10.9436 2.71429 10.702 2.71429 10.45ZM16.2857 10.45C16.2857 10.702 16.2142 10.9436 16.087 11.1218C15.9597 11.2999 15.7871 11.4 15.6071 11.4H7.46429C7.28432 11.4 7.11172 11.2999 6.98446 11.1218C6.85721 10.9436 6.78571 10.702 6.78571 10.45C6.78571 10.198 6.85721 9.95641 6.98446 9.77825C7.11172 9.60009 7.28432 9.5 7.46429 9.5H15.6071C15.7871 9.5 15.9597 9.60009 16.087 9.77825C16.2142 9.95641 16.2857 10.198 16.2857 10.45ZM12.2143 14.25C12.2143 14.502 12.1428 14.7436 12.0155 14.9218C11.8883 15.0999 11.7157 15.2 11.5357 15.2H3.39286C3.21289 15.2 3.04029 15.0999 2.91303 14.9218C2.78578 14.7436 2.71429 14.502 2.71429 14.25C2.71429 13.998 2.78578 13.7564 2.91303 13.5782C3.04029 13.4001 3.21289 13.3 3.39286 13.3H11.5357C11.7157 13.3 11.8883 13.4001 12.0155 13.5782C12.1428 13.7564 12.2143 13.998 12.2143 14.25ZM16.2857 14.25C16.2857 14.502 16.2142 14.7436 16.087 14.9218C15.9597 15.0999 15.7871 15.2 15.6071 15.2H14.25C14.07 15.2 13.8974 15.0999 13.7702 14.9218C13.6429 14.7436 13.5714 14.502 13.5714 14.25C13.5714 13.998 13.6429 13.7564 13.7702 13.5782C13.8974 13.4001 14.07 13.3 14.25 13.3H15.6071C15.7871 13.3 15.9597 13.4001 16.087 13.5782C16.2142 13.7564 16.2857 13.998 16.2857 14.25Z" fill="white"/>
</svg>
