<svg width="25" height="26" viewBox="0 0 25 26" fill="none" xmlns="http://www.w3.org/2000/svg">
<path d="M24.8583 23.9788C23.0295 20.691 20.2113 18.3335 16.9224 17.2159C18.5492 16.2088 19.8132 14.6741 20.5202 12.8477C21.2271 11.0213 21.338 9.00399 20.8358 7.10567C20.3335 5.20736 19.246 3.53296 17.7401 2.33963C16.2342 1.14629 14.3933 0.5 12.5 0.5C10.6067 0.5 8.76578 1.14629 7.25989 2.33963C5.75401 3.53296 4.66645 5.20736 4.16422 7.10567C3.662 9.00399 3.77288 11.0213 4.47984 12.8477C5.1868 14.6741 6.45075 16.2088 8.07758 17.2159C4.78869 18.3322 1.9705 20.6897 0.141734 23.9788C0.0746698 24.0925 0.0301868 24.219 0.0109092 24.3509C-0.00836843 24.4828 -0.00205003 24.6174 0.0294915 24.7467C0.0610331 24.876 0.117159 24.9974 0.194558 25.1038C0.271956 25.2102 0.36906 25.2993 0.480139 25.3661C0.591218 25.4328 0.714023 25.4757 0.841309 25.4923C0.968594 25.5088 1.09778 25.4987 1.22125 25.4625C1.34471 25.4263 1.45996 25.3648 1.56018 25.2815C1.66041 25.1983 1.74358 25.095 1.80479 24.9777C4.06703 20.912 8.06558 18.4846 12.5 18.4846C16.9344 18.4846 20.933 20.912 23.1952 24.9777C23.2564 25.095 23.3396 25.1983 23.4398 25.2815C23.54 25.3648 23.6553 25.4263 23.7788 25.4625C23.9022 25.4987 24.0314 25.5088 24.1587 25.4923C24.286 25.4757 24.4088 25.4328 24.5199 25.3661C24.6309 25.2993 24.728 25.2102 24.8054 25.1038C24.8828 24.9974 24.939 24.876 24.9705 24.7467C25.002 24.6174 25.0084 24.4828 24.9891 24.3509C24.9698 24.219 24.9253 24.0925 24.8583 23.9788ZM5.77572 9.49397C5.77572 8.11095 6.17009 6.75899 6.90897 5.60906C7.64784 4.45912 8.69803 3.56285 9.92673 3.03359C11.1554 2.50433 12.5075 2.36585 13.8118 2.63567C15.1162 2.90548 16.3144 3.57147 17.2548 4.54941C18.1952 5.52735 18.8356 6.77333 19.0951 8.12977C19.3545 9.48622 19.2214 10.8922 18.7124 12.17C18.2035 13.4477 17.3416 14.5398 16.2358 15.3082C15.13 16.0765 13.8299 16.4866 12.5 16.4866C10.7172 16.4847 9.00796 15.7473 7.74732 14.4363C6.48669 13.1254 5.77763 11.3479 5.77572 9.49397Z" fill="black"/>
</svg>
