<svg width="19" height="19" viewBox="0 0 19 19" fill="none" xmlns="http://www.w3.org/2000/svg">
<path d="M17.1148 4.07143H2.96875C2.6407 4.07143 2.375 3.76777 2.375 3.39286C2.375 3.01795 2.6407 2.71429 2.96875 2.71429H17.2188C17.5468 2.71429 17.8125 2.41062 17.8125 2.03571C17.8125 0.911406 17.015 0 16.0312 0H2.375C1.06318 0 0 1.21507 0 2.71429V16.2857C0 17.7849 1.06318 19 2.375 19H17.1148C18.1546 19 19 18.0869 19 16.9643V6.10714C19 4.98453 18.1546 4.07143 17.1148 4.07143ZM15.4375 12.8929C14.7818 12.8929 14.25 12.2851 14.25 11.5357C14.25 10.7863 14.7818 10.1786 15.4375 10.1786C16.0932 10.1786 16.625 10.7863 16.625 11.5357C16.625 12.2851 16.0932 12.8929 15.4375 12.8929Z" fill="#FDFBF9"/>
</svg>
